<?xml version="1.0" standalone="no"?>
<!DOCTYPE svg PUBLIC "-//W3C//DTD SVG 20010904//EN"
 "http://www.w3.org/TR/2001/REC-SVG-20010904/DTD/svg10.dtd">
<svg version="1.0" xmlns="http://www.w3.org/2000/svg"
 width="300.000000pt" height="300.000000pt" viewBox="0 0 300.000000 300.000000"
 preserveAspectRatio="xMidYMid meet">
<metadata>
Created by potrace 1.10, written by Peter Selinger 2001-2011
</metadata>
<g transform="translate(0.000000,300.000000) scale(0.100000,-0.100000)"
fill="#fff" stroke="none">
<path d="M1330 2554 c-166 -100 -430 -254 -506 -296 -34 -18 -107 -59 -163
-92 l-101 -58 2 -526 3 -526 95 -57 c179 -107 345 -203 455 -262 61 -33 121
-67 135 -77 14 -10 69 -43 123 -74 l97 -56 98 56 c53 31 113 66 132 76 19 11
42 26 50 33 8 7 44 27 80 45 64 32 352 198 480 277 l65 40 3 525 2 526 -57 32
c-32 18 -65 38 -73 45 -8 7 -40 25 -70 40 -62 31 -342 193 -555 320 -77 47
-147 84 -155 84 -8 1 -71 -33 -140 -75z m377 -120 c125 -75 266 -157 313 -181
110 -58 161 -87 240 -139 l65 -41 -3 -494 -2 -494 -35 -20 c-19 -11 -151 -89
-294 -172 -143 -84 -263 -153 -266 -153 -3 0 -22 -11 -43 -24 -20 -13 -76 -47
-124 -75 l-88 -52 -87 52 c-49 29 -109 65 -134 80 -25 16 -49 29 -52 29 -4 0
-44 22 -89 49 -46 26 -144 83 -218 126 -74 43 -137 81 -140 85 -3 4 -33 22
-67 41 l-63 34 0 496 0 497 143 86 c79 47 147 86 151 86 4 0 82 44 173 98 90
53 207 122 258 152 51 30 97 58 101 63 4 4 13 7 20 7 7 0 115 -61 241 -136z"/>
<path d="M1338 2166 l-37 -42 46 -46 46 -47 -48 -46 -48 -47 42 -41 41 -42 46
46 46 46 46 -49 45 -49 39 38 c21 20 38 42 38 47 0 6 -19 30 -42 53 l-42 43
47 48 47 47 -42 43 -43 42 -48 -48 -48 -47 -42 48 c-24 26 -45 47 -47 46 -3 0
-22 -20 -42 -43z m272 -40 c0 -6 -19 -30 -42 -53 l-42 -43 42 -43 c23 -23 42
-46 42 -50 0 -12 -34 -47 -45 -47 -6 0 -28 21 -49 46 l-38 46 -49 -48 -49 -48
-25 24 -25 24 47 48 47 48 -47 48 -47 48 25 24 26 24 46 -46 46 -46 45 49 45
50 24 -22 c12 -13 23 -27 23 -33z"/>
<path d="M1338 1778 l-37 -39 44 -47 45 -47 -45 -45 -44 -45 41 -44 42 -44 43
48 44 48 47 -46 47 -47 43 42 42 43 -47 47 -47 48 45 46 46 46 -41 38 -41 38
-42 -39 c-23 -21 -47 -39 -52 -39 -5 0 -27 18 -49 40 -22 22 -41 39 -43 39 -2
-1 -21 -19 -41 -41z m232 -83 l-44 -45 25 -27 c13 -15 32 -35 42 -44 22 -21
22 -28 -5 -56 l-22 -23 -48 47 -49 48 -44 -46 -43 -46 -26 26 -26 25 47 48 47
48 -46 48 -47 47 25 18 c25 19 25 19 73 -21 l48 -41 44 45 43 44 25 -25 25
-25 -44 -45z"/>
<path d="M1421 1258 c-6 -29 -20 -102 -31 -163 -11 -60 -23 -118 -26 -127 -4
-15 1 -18 30 -18 29 0 36 4 36 20 0 17 7 20 40 20 33 0 40 -3 40 -20 0 -16 7
-20 36 -20 29 0 35 3 30 16 -4 9 -19 90 -34 180 l-27 164 -42 0 -42 0 -10 -52z
m73 -180 c5 -25 3 -28 -23 -28 l-28 0 9 63 c15 110 20 119 29 52 5 -33 11 -72
13 -87z"/>
</g>
</svg>
