<svg
   version="1.1"
   id="svg2"
   width="75.59053"
   height="75.59053"
   viewBox="0 0 75.59053 75.59053"
   sodipodi:docname="sostecnible-logo.ai"
   xmlns:inkscape="http://www.inkscape.org/namespaces/inkscape"
   xmlns:sodipodi="http://sodipodi.sourceforge.net/DTD/sodipodi-0.dtd"
   xmlns="http://www.w3.org/2000/svg"
   xmlns:svg="http://www.w3.org/2000/svg">
  <defs
     id="defs6">
    <clipPath
       clipPathUnits="userSpaceOnUse"
       id="clipPath16">
      <path
         d="M 0,56.693 H 56.693 V 0 H 0 Z"
         id="path14" />
    </clipPath>
    <linearGradient
       x1="0"
       y1="0"
       x2="1"
       y2="0"
       gradientUnits="userSpaceOnUse"
       gradientTransform="matrix(4.5656586,4.5656586,4.5656586,-4.5656586,25.925114,29.627005)"
       spreadMethod="pad"
       id="linearGradient80">
      <stop
         style="stop-opacity:1;stop-color:#3b9be9"
         offset="0"
         id="stop74" />
      <stop
         style="stop-opacity:1;stop-color:#3b9be9"
         offset="0.120016"
         id="stop76" />
      <stop
         style="stop-opacity:1;stop-color:#841dc9"
         offset="1"
         id="stop78" />
    </linearGradient>
    <linearGradient
       x1="0"
       y1="0"
       x2="1"
       y2="0"
       gradientUnits="userSpaceOnUse"
       gradientTransform="matrix(15.744486,9.0900831,9.0900831,-15.744486,20.338638,27.358841)"
       spreadMethod="pad"
       id="linearGradient104">
      <stop
         style="stop-opacity:1;stop-color:#3b9be9"
         offset="0"
         id="stop96" />
      <stop
         style="stop-opacity:1;stop-color:#3b9be9"
         offset="0.120016"
         id="stop98" />
      <stop
         style="stop-opacity:1;stop-color:#841dc9"
         offset="0.869516"
         id="stop100" />
      <stop
         style="stop-opacity:1;stop-color:#841dc9"
         offset="1"
         id="stop102" />
    </linearGradient>
    <linearGradient
       x1="0"
       y1="0"
       x2="1"
       y2="0"
       gradientUnits="userSpaceOnUse"
       gradientTransform="matrix(6.174849,3.5650508,3.5650508,-6.174849,31.862684,23.176203)"
       spreadMethod="pad"
       id="linearGradient126">
      <stop
         style="stop-opacity:1;stop-color:#3b9be9"
         offset="0"
         id="stop120" />
      <stop
         style="stop-opacity:1;stop-color:#3b9be9"
         offset="0.120016"
         id="stop122" />
      <stop
         style="stop-opacity:1;stop-color:#841dc9"
         offset="1"
         id="stop124" />
    </linearGradient>
    <clipPath
       clipPathUnits="userSpaceOnUse"
       id="clipPath136">
      <path
         d="M 0,56.693 H 56.693 V 0 H 0 Z"
         id="path134" />
    </clipPath>
  </defs>
  <sodipodi:namedview
     id="namedview4"
     pagecolor="#ffffff"
     bordercolor="#000000"
     borderopacity="0.25"
     inkscape:showpageshadow="2"
     inkscape:pageopacity="0.0"
     inkscape:pagecheckerboard="0"
     inkscape:deskcolor="#d1d1d1" />
  <g
     id="g8"
     inkscape:groupmode="layer"
     inkscape:label="sostecnible-logo"
     transform="matrix(1.3333333,0,0,-1.3333333,0,75.590533)">
    <g
       id="g10">
      <g
         id="g12"
         clip-path="url(#clipPath16)">
        <g
           id="g18"
           transform="translate(4.4404,11.6646)">
          <path
             d="m 0,0 c -1.208,0 -2.058,0.661 -2.115,1.605 h 0.888 c 0.047,-0.501 0.491,-0.877 1.218,-0.877 0.679,0 1.057,0.339 1.057,0.764 0,1.152 -3.059,0.482 -3.059,2.407 0,0.793 0.746,1.445 1.898,1.445 1.142,0 1.897,-0.615 1.954,-1.624 H 0.982 c -0.038,0.519 -0.434,0.897 -1.124,0.897 -0.632,0 -1.01,-0.303 -1.01,-0.718 0,-1.227 3.003,-0.556 3.04,-2.407 C 1.888,0.643 1.143,0 0,0"
             style="fill:#3c9ae9;fill-opacity:1;fill-rule:nonzero;stroke:none"
             id="path20" />
        </g>
        <g
           id="g22"
           transform="translate(9.6982,12.4205)">
          <path
             d="m 0,0 c 0.897,0 1.775,0.613 1.775,1.926 0,1.303 -0.859,1.916 -1.747,1.916 -0.906,0 -1.727,-0.613 -1.727,-1.916 C -1.699,0.613 -0.897,0 0,0 m 0,-0.756 c -1.463,0 -2.577,1.039 -2.577,2.682 0,1.633 1.152,2.662 2.615,2.662 1.473,0 2.615,-1.029 2.615,-2.662 0,-1.643 -1.18,-2.682 -2.653,-2.682"
             style="fill:#3c9ae9;fill-opacity:1;fill-rule:nonzero;stroke:none"
             id="path24" />
        </g>
        <g
           id="g26"
           transform="translate(15.2207,11.6646)">
          <path
             d="m 0,0 c -1.208,0 -2.058,0.661 -2.115,1.605 h 0.887 c 0.048,-0.501 0.492,-0.877 1.219,-0.877 0.679,0 1.057,0.339 1.057,0.764 0,1.152 -3.059,0.482 -3.059,2.407 0,0.793 0.746,1.445 1.898,1.445 1.142,0 1.897,-0.615 1.954,-1.624 h -0.86 c -0.037,0.519 -0.434,0.897 -1.123,0.897 -0.632,0 -1.01,-0.303 -1.01,-0.718 0,-1.227 3.002,-0.556 3.04,-2.407 C 1.888,0.643 1.142,0 0,0"
             style="fill:#3c9ae9;fill-opacity:1;fill-rule:nonzero;stroke:none"
             id="path28" />
        </g>
        <g
           id="g30"
           transform="translate(18.4111,16.2154)">
          <path
             d="M 0,0 H -0.67 V 0.708 H 0 V 2.011 H 0.859 V 0.708 h 1.35 V 0 h -1.35 v -3.05 c 0,-0.51 0.189,-0.688 0.717,-0.688 H 2.209 V -4.466 H 1.435 C 0.519,-4.466 0,-4.088 0,-3.05 Z"
             style="fill:#6c47d4;fill-opacity:1;fill-rule:nonzero;stroke:none"
             id="path32" />
        </g>
        <g
           id="g34"
           transform="translate(22.1304,14.7144)">
          <path
             d="M 0,0 H 3.266 C 3.276,1.01 2.521,1.567 1.633,1.567 0.793,1.567 0.094,1.01 0,0 m 1.671,-3.05 c -1.473,0 -2.558,1.039 -2.558,2.682 0,1.633 1.048,2.662 2.558,2.662 1.501,0 2.483,-1.058 2.483,-2.474 0,-0.188 -0.01,-0.34 -0.029,-0.519 h -4.134 c 0.066,-1.048 0.802,-1.623 1.68,-1.623 0.774,0 1.265,0.396 1.454,0.953 H 4.05 C 3.786,-2.313 2.955,-3.05 1.671,-3.05"
             style="fill:#6c47d4;fill-opacity:1;fill-rule:nonzero;stroke:none"
             id="path36" />
        </g>
        <g
           id="g38"
           transform="translate(29.5215,17.0083)">
          <path
             d="M 0,0 C 1.284,0 2.124,-0.661 2.389,-1.746 H 1.464 C 1.284,-1.124 0.765,-0.727 0,-0.727 c -0.944,0 -1.643,-0.67 -1.643,-1.935 0,-1.284 0.699,-1.954 1.643,-1.954 0.765,0 1.274,0.368 1.464,1.019 H 2.389 C 2.124,-4.626 1.284,-5.344 0,-5.344 c -1.473,0 -2.521,1.039 -2.521,2.682 C -2.521,-1.038 -1.473,0 0,0"
             style="fill:#6c47d4;fill-opacity:1;fill-rule:nonzero;stroke:none"
             id="path40" />
        </g>
        <g
           id="g42"
           transform="translate(36.7432,14.6763)">
          <path
             d="m 0,0 c 0,1.058 -0.576,1.596 -1.444,1.596 -0.878,0 -1.483,-0.548 -1.483,-1.662 v -2.861 h -0.859 v 5.174 h 0.859 V 1.511 c 0.34,0.538 0.963,0.831 1.661,0.831 1.2,0 2.116,-0.737 2.116,-2.219 v -3.05 H 0 Z"
             style="fill:#6c47d4;fill-opacity:1;fill-rule:nonzero;stroke:none"
             id="path44" />
        </g>
        <path
           d="m 38.904,16.923 h 0.859 v -5.174 h -0.859 z m -0.141,1.426 c 0,0.33 0.255,0.585 0.586,0.585 0.311,0 0.566,-0.255 0.566,-0.585 0,-0.331 -0.255,-0.586 -0.566,-0.586 -0.331,0 -0.586,0.255 -0.586,0.586"
           style="fill:#6c47d4;fill-opacity:1;fill-rule:nonzero;stroke:none"
           id="path46" />
        <g
           id="g48"
           transform="translate(43.7471,16.2623)">
          <path
             d="m 0,0 c -0.935,0 -1.756,-0.718 -1.756,-1.916 0,-1.218 0.821,-1.926 1.756,-1.926 0.954,0 1.756,0.717 1.756,1.935 C 1.756,-0.689 0.954,0 0,0 m 0.18,0.746 c 1.397,0 2.454,-1.038 2.454,-2.653 0,-1.605 -1.067,-2.691 -2.454,-2.691 -0.945,0 -1.615,0.473 -1.936,1.039 v -0.954 h -0.859 v 6.987 h 0.859 v -2.776 c 0.331,0.576 1.02,1.048 1.936,1.048"
             style="fill:#6c47d4;fill-opacity:1;fill-rule:nonzero;stroke:none"
             id="path50" />
        </g>
        <path
           d="m 47.419,18.736 h 0.859 V 11.75 h -0.859 z"
           style="fill:#6c47d4;fill-opacity:1;fill-rule:nonzero;stroke:none"
           id="path52" />
        <g
           id="g54"
           transform="translate(50.2129,14.7144)">
          <path
             d="M 0,0 H 3.267 C 3.276,1.01 2.521,1.567 1.634,1.567 0.794,1.567 0.095,1.01 0,0 m 1.671,-3.05 c -1.473,0 -2.558,1.039 -2.558,2.682 0,1.633 1.048,2.662 2.558,2.662 1.501,0 2.483,-1.058 2.483,-2.474 0,-0.188 -0.009,-0.34 -0.028,-0.519 h -4.135 c 0.066,-1.048 0.803,-1.623 1.68,-1.623 0.774,0 1.266,0.396 1.454,0.953 H 4.05 C 3.786,-2.313 2.955,-3.05 1.671,-3.05"
             style="fill:#6c47d4;fill-opacity:1;fill-rule:nonzero;stroke:none"
             id="path56" />
        </g>
        <g
           id="g58"
           transform="translate(32.4404,37.3218)">
          <path
             d="m 0,0 v 2.946 c 0,0.633 0.513,1.146 1.146,1.146 h 2.945 c 0.633,0 1.145,-0.513 1.145,-1.146 L 5.236,0 c 0,-0.632 -0.512,-1.145 -1.145,-1.145 H 1.146 C 0.513,-1.145 0,-0.632 0,0"
             style="fill:#7930ce;fill-opacity:1;fill-rule:nonzero;stroke:none"
             id="path60" />
        </g>
      </g>
    </g>
    <g
       id="g62">
      <g
         id="g64">
        <g
           id="g70">
          <g
             id="g72">
            <path
               d="m 26.734,34.528 c -0.632,0 -1.144,-0.512 -1.144,-1.145 v 0 -2.947 c 0,-0.632 0.512,-1.145 1.144,-1.145 v 0 h 2.947 c 0.633,0 1.145,0.513 1.145,1.145 v 0 2.947 c 0,0.633 -0.512,1.145 -1.145,1.145 v 0 z"
               style="fill:url(#linearGradient80);stroke:none"
               id="path82" />
          </g>
        </g>
      </g>
    </g>
    <g
       id="g84">
      <g
         id="g86">
        <g
           id="g92">
          <g
             id="g94">
            <path
               d="m 26.734,41.413 c -0.632,0 -1.144,-0.513 -1.144,-1.145 v 0 -2.946 c 0,-0.632 0.512,-1.146 1.144,-1.146 v 0 h 1.57 c 2.291,0.041 4.153,-1.82 4.126,-4.104 v 0 -0.174 c 0.007,-2.624 -1.626,-4.263 -4.248,-4.27 v 0 h -0.085 c -2.289,-0.038 -4.149,1.824 -4.122,4.103 v 0 1.652 c 0,0.633 -0.513,1.145 -1.145,1.145 v 0 h -2.945 c -0.634,0 -1.146,-0.512 -1.146,-1.145 v 0 -2.947 c 0,-0.632 0.512,-1.145 1.146,-1.145 v 0 h 1.562 c 2.287,0.037 4.145,-1.823 4.118,-4.102 v 0 -1.66 c 0,-0.634 0.513,-1.147 1.148,-1.147 v 0 h 2.952 c 0.634,0 1.147,0.513 1.147,1.147 v 0 1.483 c -0.008,2.623 1.625,4.262 4.247,4.269 v 0 h 1.47 c 0.634,0 1.148,0.513 1.148,1.147 v 0 2.952 c 0,0.635 -0.514,1.148 -1.148,1.148 v 0 h -1.575 c -2.299,-0.042 -4.17,1.834 -4.128,4.131 v 0 1.609 c 0,0.632 -0.512,1.145 -1.145,1.145 v 0 z"
               style="fill:url(#linearGradient104);stroke:none"
               id="path106" />
          </g>
        </g>
      </g>
    </g>
    <g
       id="g108">
      <g
         id="g110">
        <g
           id="g116">
          <g
             id="g118">
            <path
               d="m 34.951,27.569 c -1.442,0 -2.611,-1.169 -2.611,-2.61 v 0 -2.61 h 2.611 c 1.44,0 2.61,1.168 2.61,2.61 v 0 c 0,1.254 -10e-4,2.302 -10e-4,2.552 v 0 0.058 z"
               style="fill:url(#linearGradient126);stroke:none"
               id="path128" />
          </g>
        </g>
      </g>
    </g>
    <g
       id="g130">
      <g
         id="g132"
         clip-path="url(#clipPath136)">
        <g
           id="g138"
           transform="translate(35.3154,43.293)">
          <path
             d="m 0,0 c -1.036,0 -1.877,0.84 -1.877,1.877 0,1.037 0.841,1.877 1.877,1.877 1.037,0 1.877,-0.84 1.877,-1.877 C 1.877,0.84 1.037,0 0,0"
             style="fill:#841dc9;fill-opacity:1;fill-rule:nonzero;stroke:none"
             id="path140" />
        </g>
        <g
           id="g142"
           transform="translate(28.3257,43.293)">
          <path
             d="m 0,0 c -1.037,0 -1.877,0.84 -1.877,1.877 0,1.037 0.84,1.877 1.877,1.877 1.037,0 1.876,-0.84 1.876,-1.877 C 1.876,0.84 1.037,0 0,0"
             style="fill:#841dc9;fill-opacity:1;fill-rule:nonzero;stroke:none"
             id="path144" />
        </g>
        <g
           id="g146"
           transform="translate(15.4287,22.9537)">
          <path
             d="m 0,0 c -1.037,0 -1.877,0.84 -1.877,1.876 0,1.037 0.84,1.877 1.877,1.877 1.037,0 1.877,-0.84 1.877,-1.877 C 1.877,0.84 1.037,0 0,0"
             style="fill:#36a4ec;fill-opacity:1;fill-rule:nonzero;stroke:none"
             id="path148" />
        </g>
        <g
           id="g150"
           transform="translate(35.2822,43.2935)">
          <path
             d="m 0,0 c -1.877,0.033 -4.397,-1.882 -4.444,-4.5 l -2.368,2.653 c 2.607,-0.251 4.797,2.035 4.977,3.903 z"
             style="fill:#7a2fce;fill-opacity:1;fill-rule:nonzero;stroke:none"
             id="path152" />
        </g>
        <g
           id="g154"
           transform="translate(18.7393,23.5513)">
          <path
             d="m 0,0 v 2.946 c 0,0.633 0.512,1.146 1.145,1.146 h 2.946 c 0.632,0 1.145,-0.513 1.145,-1.146 L 5.236,0 c 0,-0.633 -0.513,-1.145 -1.145,-1.145 H 1.145 C 0.512,-1.145 0,-0.633 0,0"
             style="fill:#3b9be9;fill-opacity:1;fill-rule:nonzero;stroke:none"
             id="path156" />
        </g>
        <g
           id="g158"
           transform="translate(15.4287,30.1753)">
          <path
             d="m 0,0 c -1.037,0 -1.877,0.84 -1.877,1.877 0,1.037 0.84,1.877 1.877,1.877 1.037,0 1.877,-0.84 1.877,-1.877 C 1.877,0.84 1.037,0 0,0"
             style="fill:#3b9be9;fill-opacity:1;fill-rule:nonzero;stroke:none"
             id="path160" />
        </g>
        <g
           id="g162"
           transform="translate(18.7593,25.3511)">
          <path
             d="m 0,0 c 0.327,2.598 -1.702,4.605 -3.564,4.838 l 2.108,1.78 C -1.539,4.743 0.098,2.405 2.714,2.289 Z"
             style="fill:#3b9be9;fill-opacity:1;fill-rule:nonzero;stroke:none"
             id="path164" />
        </g>
      </g>
    </g>
  </g>
</svg>